<svg width="180" height="33" viewBox="0 0 180 33" fill="none" xmlns="http://www.w3.org/2000/svg" aria-labelledby="title"><title id="title">Credijusto</title><g clip-path="url(#clip0)"><path d="M0 12.3842C0 5.60272 5.01637 0.341797 12.0424 0.341797C16.275 0.341797 20.0153 2.50824 21.9999 5.80024L18.0621 8.08269C16.9303 6.03224 14.6886 4.77502 12.0424 4.77502C7.50888 4.77502 4.53355 7.91025 4.53355 12.3842C4.53355 16.8582 7.52456 19.959 12.0424 19.959C14.6886 19.959 16.971 18.7049 18.0621 16.6858L21.9999 18.9682C20.0467 22.2759 16.3032 24.4267 12.0424 24.4267C5.01637 24.4267 0 19.125 0 12.3842Z" fill="white"/><path d="M34.1741 7.0918V11.8542C31.9575 11.5909 29.1577 12.5816 29.1577 16.0554V23.9625H24.875V7.421H29.1577V10.2678C30.0199 8.01669 32.1017 7.0918 34.1741 7.0918Z" fill="white"/><path d="M44.2913 20.5543C45.9467 20.5543 47.2698 19.8614 47.9971 18.9021L51.4459 20.8867C49.8783 23.1346 47.4077 24.4263 44.2349 24.4263C38.6792 24.4263 35.1709 20.6202 35.1709 15.6916C35.1709 10.763 38.7012 6.95996 43.8931 6.95996C48.7903 6.95996 52.261 10.8288 52.261 15.6916C52.2582 16.2794 52.2036 16.8659 52.098 17.4442H39.6292C40.2249 19.6388 42.0433 20.5543 44.2913 20.5543ZM47.9971 14.1365C47.4673 11.7569 45.6833 10.7975 43.8931 10.7975C41.6107 10.7975 40.0556 12.0202 39.5602 14.1365H47.9971Z" fill="white"/><path d="M71.9162 0.805664V23.9625H67.646V22.0124C66.4577 23.533 64.702 24.4265 62.2879 24.4265C57.8546 24.4265 54.2178 20.6203 54.2178 15.6917C54.2178 10.7632 57.8546 6.96013 62.2879 6.96013C64.702 6.96013 66.4577 7.85367 67.646 9.37426V0.805664H71.9162ZM67.646 15.6917C67.646 12.9139 65.6959 11.0265 63.0811 11.0265C60.4663 11.0265 58.4848 12.9077 58.4848 15.6917C58.4848 18.4758 60.4349 20.357 63.0811 20.357C65.7272 20.357 67.646 18.4758 67.646 15.6917Z" fill="white"/><path d="M75.3207 2.82135C75.3033 2.46553 75.3584 2.10988 75.4826 1.77598C75.6068 1.44208 75.7975 1.13688 76.0432 0.878905C76.2889 0.620926 76.5844 0.415538 76.9118 0.275201C77.2393 0.134863 77.5918 0.0625 77.9481 0.0625C78.3043 0.0625 78.6568 0.134863 78.9843 0.275201C79.3117 0.415538 79.6073 0.620926 79.8529 0.878905C80.0986 1.13688 80.2893 1.44208 80.4135 1.77598C80.5377 2.10988 80.5928 2.46553 80.5754 2.82135C80.5754 3.51899 80.2983 4.18806 79.8049 4.68137C79.3116 5.17468 78.6426 5.45181 77.9449 5.45181C77.2473 5.45181 76.5782 5.17468 76.0849 4.68137C75.5916 4.18806 75.3145 3.51899 75.3145 2.82135H75.3207ZM75.8098 7.4176H80.0769V23.9622H75.8161L75.8098 7.4176Z" fill="white"/><path d="M84.1871 7.42125H88.4542V24.2951C88.4542 29.1578 86.1373 31.3399 81.2432 31.0421V26.9412C83.2623 27.0729 84.1903 26.3142 84.1903 24.2951L84.1871 7.42125ZM83.6886 2.82187C83.6886 2.12423 83.9658 1.45516 84.4591 0.96185C84.9524 0.468543 85.6215 0.191406 86.3191 0.191406C87.0167 0.191406 87.6858 0.468543 88.1791 0.96185C88.6724 1.45516 88.9496 2.12423 88.9496 2.82187C88.9496 3.51951 88.6724 4.18858 88.1791 4.68188C87.6858 5.17519 87.0167 5.45233 86.3191 5.45233C85.6215 5.45233 84.9524 5.17519 84.4591 4.68188C83.9658 4.18858 83.6886 3.51951 83.6886 2.82187Z" fill="white"/><path d="M107.538 7.4209V23.9624H103.271V22.1095C102.28 23.5987 100.559 24.4264 98.3425 24.4264C94.8373 24.4264 92.0908 21.9778 92.0908 17.5791V7.4209H96.3579V17.0492C96.3579 19.2972 97.7154 20.4572 99.6342 20.4572C101.719 20.4572 103.271 19.2313 103.271 16.3532V7.4209H107.538Z" fill="white"/><path d="M123.782 19.1253C123.782 22.6963 120.672 24.4176 117.132 24.4176C113.825 24.4176 111.376 23.0286 110.185 20.4797L113.89 18.3948C114.354 19.7523 115.48 20.5455 117.132 20.5455C118.49 20.5455 119.415 20.0847 119.415 19.1253C119.415 16.708 110.881 18.0311 110.881 12.209C110.881 8.83545 113.759 6.95117 117.151 6.95117C119.829 6.95117 122.145 8.17391 123.422 10.4564L119.785 12.441C119.562 11.9279 119.191 11.4932 118.72 11.1926C118.248 10.892 117.698 10.7393 117.139 10.7542C116.079 10.7542 115.22 11.2182 115.22 12.1118C115.22 14.5572 123.754 13.0523 123.754 19.1253" fill="white"/><path d="M131.755 11.5248V18.4035C131.755 20.1906 133.043 20.2251 135.492 20.0934V23.9623C129.504 24.6238 127.485 22.8712 127.485 18.4035V11.5248H124.606V7.42078H127.485V4.07548L131.755 2.79004V7.42078H135.492V11.5248H131.755Z" fill="white"/><path d="M137.144 15.6919C137.141 13.9599 137.652 12.2659 138.612 10.8245C139.573 9.38311 140.939 8.25911 142.539 7.59487C144.138 6.93063 145.899 6.75602 147.598 7.09316C149.297 7.4303 150.857 8.26401 152.082 9.48873C153.307 10.7134 154.14 12.2741 154.478 13.9729C154.815 15.6718 154.64 17.4325 153.976 19.0321C153.312 20.6317 152.188 21.9981 150.746 22.9585C149.305 23.9188 147.611 24.4297 145.879 24.4266C144.728 24.4388 143.587 24.2212 142.522 23.7865C141.457 23.3519 140.489 22.7089 139.675 21.8954C138.862 21.0819 138.219 20.1141 137.784 19.0489C137.349 17.9836 137.132 16.8423 137.144 15.6919ZM150.378 15.6919C150.378 13.0144 148.425 11.127 145.879 11.127C143.333 11.127 141.399 13.0144 141.399 15.6919C141.399 18.3694 143.352 20.2568 145.866 20.2568C148.381 20.2568 150.365 18.3756 150.365 15.6919" fill="white"/><path d="M167.685 31.8979L179.963 0.771267C179.996 0.685806 180.009 0.593414 179.999 0.502115C179.988 0.410816 179.956 0.323369 179.905 0.247368C179.853 0.171367 179.784 0.10911 179.703 0.066001C179.621 0.0228925 179.531 0.000236381 179.439 0L171.313 0C171.163 0.000131495 171.016 0.0453297 170.892 0.129739C170.768 0.214149 170.672 0.333879 170.617 0.47342L158.33 31.6031C158.296 31.6884 158.283 31.7807 158.293 31.8719C158.304 31.963 158.336 32.0504 158.388 32.1262C158.439 32.202 158.509 32.2639 158.59 32.3067C158.671 32.3494 158.761 32.3716 158.853 32.3713H166.977C167.127 32.3709 167.274 32.3257 167.398 32.2413C167.523 32.157 167.62 32.0374 167.676 31.8979" fill="#FFA800"/></g><defs><clipPath id="clip0"><rect width="180" height="32.3713" fill="white"/></clipPath></defs></svg>
